<svg width="1024" height="1024" viewBox="0 0 1024 1024" fill="none" xmlns="http://www.w3.org/2000/svg">
<path d="M0 0H1024V1024H0V0Z" fill="#00A86B"/>
<path d="M480.727 791H274.273V232.455H480.455C537.364 232.455 586.364 243.636 627.455 266C668.727 288.182 700.545 320.182 722.909 362C745.273 403.636 756.455 453.455 756.455 511.455C756.455 569.636 745.273 619.636 722.909 661.455C700.727 703.273 669 735.364 627.727 757.727C586.455 779.909 537.455 791 480.727 791ZM409.273 675.909H475.545C506.818 675.909 533.273 670.636 554.909 660.091C576.727 649.364 593.182 632 604.273 608C615.545 583.818 621.182 551.636 621.182 511.455C621.182 471.273 615.545 439.273 604.273 415.455C593 391.455 576.364 374.182 554.364 363.636C532.545 352.909 505.636 347.545 473.636 347.545H409.273V675.909Z" fill="white"/>
</svg>
