<svg width="233" height="101" viewBox="0 0 233 101" fill="none" xmlns="http://www.w3.org/2000/svg">
<path d="M34.4091 99.1819H4.48227e-05V6.09097H34.3637C43.8485 6.09097 52.0152 7.95461 58.8637 11.6819C65.7425 15.3789 71.0455 20.7122 74.7728 27.6819C78.5 34.6213 80.3637 42.9243 80.3637 52.591C80.3637 62.2879 78.5 70.6213 74.7728 77.591C71.0758 84.5607 65.7879 89.9092 58.9091 93.6364C52.0303 97.3334 43.8637 99.1819 34.4091 99.1819ZM22.5 80.0001H33.5455C38.7576 80.0001 43.1667 79.1213 46.7728 77.3637C50.4091 75.5758 53.1516 72.6819 55 68.6819C56.8788 64.6516 57.8182 59.2879 57.8182 52.591C57.8182 45.894 56.8788 40.5607 55 36.591C53.1213 32.591 50.3485 29.7122 46.6819 27.9546C43.0455 26.1667 38.5607 25.2728 33.2273 25.2728H22.5V80.0001ZM132.146 69.0455V29.3637H154.327V99.1819H133.146V86.1819H132.418C130.873 90.4546 128.236 93.8486 124.509 96.3637C120.812 98.8486 116.342 100.091 111.1 100.091C106.342 100.091 102.161 99.0001 98.5546 96.8182C94.9485 94.6364 92.1455 91.591 90.1455 87.6819C88.1455 83.7425 87.1303 79.1364 87.1 73.8637V29.3637H109.327V69.5001C109.358 73.2879 110.358 76.2728 112.327 78.4546C114.297 80.6364 116.979 81.7273 120.373 81.7273C122.585 81.7273 124.57 81.2425 126.327 80.2728C128.115 79.2728 129.524 77.8334 130.555 75.9546C131.615 74.0455 132.146 71.7425 132.146 69.0455ZM162.075 99.1819V29.3637H183.666V42.091H184.393C185.666 37.4849 187.742 34.0607 190.62 31.8182C193.499 29.5455 196.848 28.4092 200.666 28.4092C201.696 28.4092 202.757 28.4849 203.848 28.6364C204.939 28.7576 205.954 28.9546 206.893 29.2273V48.5455C205.833 48.1819 204.439 47.894 202.711 47.6819C201.014 47.4698 199.499 47.3637 198.166 47.3637C195.53 47.3637 193.151 47.9546 191.03 49.1364C188.939 50.2879 187.287 51.9092 186.075 54.0001C184.893 56.0607 184.302 58.4849 184.302 61.2728V99.1819H162.075ZM209.55 99.1819V29.3637H231.777V99.1819H209.55ZM220.686 21.2273C217.565 21.2273 214.883 20.197 212.641 18.1364C210.399 16.0455 209.277 13.5304 209.277 10.591C209.277 7.68188 210.399 5.19703 212.641 3.13643C214.883 1.04552 217.565 6.10352e-05 220.686 6.10352e-05C223.838 6.10352e-05 226.52 1.04552 228.732 3.13643C230.974 5.19703 232.096 7.68188 232.096 10.591C232.096 13.5304 230.974 16.0455 228.732 18.1364C226.52 20.197 223.838 21.2273 220.686 21.2273Z" fill="#003220"/>
</svg>
